<?xml version="1.0" encoding="UTF-8"?>
<!-- Do not edit this file with editors other than diagrams.net -->
<!DOCTYPE svg PUBLIC "-//W3C//DTD SVG 1.1//EN" "http://www.w3.org/Graphics/SVG/1.1/DTD/svg11.dtd">
<svg xmlns="http://www.w3.org/2000/svg" xmlns:xlink="http://www.w3.org/1999/xlink" version="1.1" width="441px" height="271px" viewBox="-0.5 -0.5 441 271"><defs><clipPath id="mx-clip-0-30-40-30-0"><rect x="0" y="30" width="40" height="30"/></clipPath><clipPath id="mx-clip-46-30-394-30-0"><rect x="46" y="30" width="394" height="30"/></clipPath><clipPath id="mx-clip-46-60-394-30-0"><rect x="46" y="60" width="394" height="30"/></clipPath><clipPath id="mx-clip-46-90-394-30-0"><rect x="46" y="90" width="394" height="30"/></clipPath><clipPath id="mx-clip-46-120-394-30-0"><rect x="46" y="120" width="394" height="30"/></clipPath><clipPath id="mx-clip-46-150-394-30-0"><rect x="46" y="150" width="394" height="30"/></clipPath><clipPath id="mx-clip-46-180-394-30-0"><rect x="46" y="180" width="394" height="30"/></clipPath><clipPath id="mx-clip-46-210-394-30-0"><rect x="46" y="210" width="394" height="30"/></clipPath></defs><g><path d="M 0 30 L 0 0 L 440 0 L 440 30" fill="rgb(255, 255, 255)" stroke="rgb(0, 0, 0)" stroke-miterlimit="10" pointer-events="all"/><path d="M 0 30 L 0 270 L 440 270 L 440 30" fill="none" stroke="rgb(0, 0, 0)" stroke-miterlimit="10" pointer-events="none"/><path d="M 0 30 L 440 30" fill="none" stroke="rgb(0, 0, 0)" stroke-miterlimit="10" pointer-events="none"/><path d="M 40 30 L 40 60 L 40 90 L 40 120 L 40 150 L 40 180 L 40 210 L 40 240 L 40 270" fill="none" stroke="rgb(0, 0, 0)" stroke-miterlimit="10" pointer-events="none"/><g fill="rgb(0, 0, 0)" font-family="Helvetica" font-weight="bold" pointer-events="none" text-anchor="middle" font-size="12px"><text x="219.5" y="19.5">Tasks</text></g><path d="M 0 30 M 440 30 M 440 60 L 0 60" fill="none" stroke="rgb(0, 0, 0)" stroke-linecap="square" stroke-miterlimit="10" pointer-events="none"/><path d="M 0 30 M 40 30 M 40 60 M 0 60" fill="none" stroke="rgb(0, 0, 0)" stroke-linecap="square" stroke-miterlimit="10" pointer-events="none"/><g fill="rgb(0, 0, 0)" font-family="Helvetica" font-weight="bold" pointer-events="none" clip-path="url(#mx-clip-0-30-40-30-0)" text-anchor="middle" font-size="12px"><text x="19.5" y="49.5">PK</text></g><path d="M 40 30 M 440 30 M 440 60 M 40 60" fill="none" stroke="rgb(0, 0, 0)" stroke-linecap="square" stroke-miterlimit="10" pointer-events="none"/><g fill="rgb(0, 0, 0)" font-family="Helvetica" font-weight="bold" text-decoration="underline" pointer-events="none" clip-path="url(#mx-clip-46-30-394-30-0)" font-size="12px"><text x="47.5" y="49.5">id SERIAL UNIQUE</text></g><path d="M 0 60 M 440 60 M 440 90 M 0 90" fill="none" stroke="rgb(0, 0, 0)" stroke-linecap="square" stroke-miterlimit="10" pointer-events="none"/><path d="M 0 60 M 40 60 M 40 90 M 0 90" fill="none" stroke="rgb(0, 0, 0)" stroke-linecap="square" stroke-miterlimit="10" pointer-events="none"/><path d="M 40 60 M 440 60 M 440 90 M 40 90" fill="none" stroke="rgb(0, 0, 0)" stroke-linecap="square" stroke-miterlimit="10" pointer-events="none"/><g fill="rgb(0, 0, 0)" font-family="Helvetica" pointer-events="none" clip-path="url(#mx-clip-46-60-394-30-0)" font-size="12px"><text x="47.5" y="79.5">user_id int NOT NULL</text></g><path d="M 0 90 M 440 90 M 440 120 M 0 120" fill="none" stroke="rgb(0, 0, 0)" stroke-linecap="square" stroke-miterlimit="10" pointer-events="none"/><path d="M 0 90 M 40 90 M 40 120 M 0 120" fill="none" stroke="rgb(0, 0, 0)" stroke-linecap="square" stroke-miterlimit="10" pointer-events="none"/><path d="M 40 90 M 440 90 M 440 120 M 40 120" fill="none" stroke="rgb(0, 0, 0)" stroke-linecap="square" stroke-miterlimit="10" pointer-events="none"/><g fill="rgb(0, 0, 0)" font-family="Helvetica" pointer-events="none" clip-path="url(#mx-clip-46-90-394-30-0)" font-size="12px"><text x="47.5" y="109.5">title text NOT NULL</text></g><path d="M 0 120 M 440 120 M 440 150 M 0 150" fill="none" stroke="rgb(0, 0, 0)" stroke-linecap="square" stroke-miterlimit="10" pointer-events="none"/><path d="M 0 120 M 40 120 M 40 150 M 0 150" fill="none" stroke="rgb(0, 0, 0)" stroke-linecap="square" stroke-miterlimit="10" pointer-events="none"/><path d="M 40 120 M 440 120 M 440 150 M 40 150" fill="none" stroke="rgb(0, 0, 0)" stroke-linecap="square" stroke-miterlimit="10" pointer-events="none"/><g fill="rgb(0, 0, 0)" font-family="Helvetica" pointer-events="none" clip-path="url(#mx-clip-46-120-394-30-0)" font-size="12px"><text x="47.5" y="139.5">description text NOT NULL</text></g><path d="M 0 150 M 440 150 M 440 180 M 0 180" fill="none" stroke="rgb(0, 0, 0)" stroke-linecap="square" stroke-miterlimit="10" pointer-events="none"/><path d="M 0 150 M 40 150 M 40 180 M 0 180" fill="none" stroke="rgb(0, 0, 0)" stroke-linecap="square" stroke-miterlimit="10" pointer-events="none"/><path d="M 40 150 M 440 150 M 440 180 M 40 180" fill="none" stroke="rgb(0, 0, 0)" stroke-linecap="square" stroke-miterlimit="10" pointer-events="none"/><g fill="rgb(0, 0, 0)" font-family="Helvetica" pointer-events="none" clip-path="url(#mx-clip-46-150-394-30-0)" font-size="12px"><text x="47.5" y="169.5">important boolean NOT NULL DEFAULT FALSE</text></g><path d="M 0 180 M 440 180 M 440 210 M 0 210" fill="none" stroke="rgb(0, 0, 0)" stroke-linecap="square" stroke-miterlimit="10" pointer-events="none"/><path d="M 0 180 M 40 180 M 40 210 M 0 210" fill="none" stroke="rgb(0, 0, 0)" stroke-linecap="square" stroke-miterlimit="10" pointer-events="none"/><path d="M 40 180 M 440 180 M 440 210 M 40 210" fill="none" stroke="rgb(0, 0, 0)" stroke-linecap="square" stroke-miterlimit="10" pointer-events="none"/><g fill="rgb(0, 0, 0)" font-family="Helvetica" pointer-events="none" clip-path="url(#mx-clip-46-180-394-30-0)" font-size="12px"><text x="47.5" y="199.5">done boolean NOT NULL DEFAULT FALSE</text></g><path d="M 0 210 M 440 210 M 440 240 M 0 240" fill="none" stroke="rgb(0, 0, 0)" stroke-linecap="square" stroke-miterlimit="10" pointer-events="none"/><path d="M 0 210 M 40 210 M 40 240 M 0 240" fill="none" stroke="rgb(0, 0, 0)" stroke-linecap="square" stroke-miterlimit="10" pointer-events="none"/><path d="M 40 210 M 440 210 M 440 240 M 40 240" fill="none" stroke="rgb(0, 0, 0)" stroke-linecap="square" stroke-miterlimit="10" pointer-events="none"/><g fill="rgb(0, 0, 0)" font-family="Helvetica" pointer-events="none" clip-path="url(#mx-clip-46-210-394-30-0)" font-size="12px"><text x="47.5" y="229.5">created_on timestamp NOT NULL DEFAULT CURRENT_TIMESTAMP</text></g><path d="M 0 240 M 440 240 M 440 270 M 0 270" fill="none" stroke="rgb(0, 0, 0)" stroke-linecap="square" stroke-miterlimit="10" pointer-events="none"/><path d="M 0 240 M 40 240 M 40 270 M 0 270" fill="none" stroke="rgb(0, 0, 0)" stroke-linecap="square" stroke-miterlimit="10" pointer-events="none"/><path d="M 40 240 M 440 240 M 440 270 M 40 270" fill="none" stroke="rgb(0, 0, 0)" stroke-linecap="square" stroke-miterlimit="10" pointer-events="none"/></g></svg>