<svg width="1440" height="892" viewBox="0 0 1440 892" fill="none" xmlns="http://www.w3.org/2000/svg">
<g clip-path="url(#clip0_215_170)">
<g clip-path="url(#clip1_215_170)">
<path d="M1440 0H0V892H1440V0Z" fill="white"/>
<path d="M1371.43 68.6154H1302.86V137.231H1371.43V68.6154Z" fill="white"/>
<path d="M1440 68.6154H1371.43V137.231H1440V68.6154Z" fill="white"/>
<path d="M205.715 137.231H137.143V205.846H205.715V137.231Z" fill="white"/>
<path d="M171.429 171.538H137.143V205.846H171.429V171.538Z" fill="#F4F4F4"/>
<path d="M205.714 171.538H171.429V205.846H205.714V171.538Z" fill="#EEEEEE"/>
<path d="M480 137.231H411.429V205.846H480V137.231Z" fill="white"/>
<path d="M480 137.231H445.714V171.538H480V137.231Z" fill="#F8F8F8"/>
<path d="M754.286 137.231H685.714V205.846H754.286V137.231Z" fill="white"/>
<path d="M205.715 205.846H137.143V274.462H205.715V205.846Z" fill="white"/>
<path d="M171.429 240.154H137.143V274.462H171.429V240.154Z" fill="#FFE4D5"/>
<path d="M411.428 205.846H342.857V274.462H411.428V205.846Z" fill="white"/>
<path d="M377.143 205.846H342.857V240.154H377.143V205.846Z" fill="#FFD2B8"/>
<path d="M377.143 240.154H342.857V274.462H377.143V240.154Z" fill="#FBFBFB"/>
<path d="M685.714 205.846H617.143V274.462H685.714V205.846Z" fill="white"/>
<path d="M754.286 205.846H685.714V274.462H754.286V205.846Z" fill="white"/>
<path d="M754.286 205.846H720V240.154H754.286V205.846Z" fill="#FBFBFB"/>
<path d="M891.428 205.846H822.857V274.462H891.428V205.846Z" fill="white"/>
<path d="M891.428 240.154H857.143V274.462H891.428V240.154Z" fill="#E4E4E4"/>
<path d="M1028.57 205.846H960V274.462H1028.57V205.846Z" fill="white"/>
<path d="M1028.57 240.154H994.286V274.462H1028.57V240.154Z" fill="#FFDBC6"/>
<path d="M1097.14 205.846H1028.57V274.462H1097.14V205.846Z" fill="white"/>
<path d="M1097.14 205.846H1062.86V240.154H1097.14V205.846Z" fill="#FFD5BC"/>
<path d="M1097.14 240.154H1062.86V274.462H1097.14V240.154Z" fill="#F8F8F8"/>
<path d="M137.143 274.462H68.5713V343.077H137.143V274.462Z" fill="white"/>
<path d="M205.715 274.462H137.143V343.077H205.715V274.462Z" fill="white"/>
<path d="M171.429 274.462H137.143V308.769H171.429V274.462Z" fill="#FFFDFD"/>
<path d="M205.714 308.769H171.429V343.077H205.714V308.769Z" fill="#FFF2EB"/>
<path d="M342.857 274.462H274.286V343.077H342.857V274.462Z" fill="white"/>
<path d="M548.571 274.462H480V343.077H548.571V274.462Z" fill="white"/>
<path d="M548.571 274.462H514.286V308.769H548.571V274.462Z" fill="#EBEBEB"/>
<path d="M514.286 308.769H480V343.077H514.286V308.769Z" fill="#F0F0F0"/>
<path d="M548.571 308.769H514.286V343.077H548.571V308.769Z" fill="#FAFAFA"/>
<path d="M754.286 274.462H685.714V343.077H754.286V274.462Z" fill="white"/>
<path d="M720 274.462H685.714V308.769H720V274.462Z" fill="#E8E8E8"/>
<path d="M754.286 308.769H720V343.077H754.286V308.769Z" fill="#FFFCFA"/>
<path d="M891.428 274.462H822.857V343.077H891.428V274.462Z" fill="white"/>
<path d="M857.143 274.462H822.857V308.769H857.143V274.462Z" fill="#FFDAC5"/>
<path d="M891.428 274.462H857.143V308.769H891.428V274.462Z" fill="#E8E8E8"/>
<path d="M891.428 308.769H857.143V343.077H891.428V308.769Z" fill="#EBEBEB"/>
<path d="M960 274.462H891.429V343.077H960V274.462Z" fill="white"/>
<path d="M925.714 274.462H891.429V308.769H925.714V274.462Z" fill="#FBFBFB"/>
<path d="M925.714 308.769H891.429V343.077H925.714V308.769Z" fill="#EBEBEB"/>
<path d="M960 308.769H925.714V343.077H960V308.769Z" fill="#FFF3ED"/>
<path d="M1028.57 274.462H960V343.077H1028.57V274.462Z" fill="white"/>
<path d="M994.286 308.769H960V343.077H994.286V308.769Z" fill="#F9F9F9"/>
<path d="M1302.86 274.462H1234.29V343.077H1302.86V274.462Z" fill="white"/>
<path d="M1268.57 308.769H1234.29V343.077H1268.57V308.769Z" fill="#F1F1F1"/>
<path d="M205.715 343.077H137.143V411.692H205.715V343.077Z" fill="white"/>
<path d="M171.429 343.077H137.143V377.385H171.429V343.077Z" fill="#E5E5E5"/>
<path d="M171.429 377.385H137.143V411.692H171.429V377.385Z" fill="#FFDDC9"/>
<path d="M274.286 343.077H205.714V411.692H274.286V343.077Z" fill="white"/>
<path d="M240 343.077H205.714V377.385H240V343.077Z" fill="#EEEEEE"/>
<path d="M274.286 343.077H240V377.385H274.286V343.077Z" fill="#E8E8E8"/>
<path d="M342.857 343.077H274.286V411.692H342.857V343.077Z" fill="white"/>
<path d="M342.857 343.077H308.571V377.385H342.857V343.077Z" fill="#FFF7F2"/>
<path d="M308.571 377.385H274.286V411.692H308.571V377.385Z" fill="#FFEADE"/>
<path d="M480 343.077H411.429V411.692H480V343.077Z" fill="white"/>
<path d="M445.714 343.077H411.429V377.385H445.714V343.077Z" fill="#FAFAFA"/>
<path d="M480 343.077H445.714V377.385H480V343.077Z" fill="#E4E4E4"/>
<path d="M445.714 377.385H411.429V411.692H445.714V377.385Z" fill="#FFDECB"/>
<path d="M754.286 343.077H685.714V411.692H754.286V343.077Z" fill="white"/>
<path d="M720 377.385H685.714V411.692H720V377.385Z" fill="#FFE2D1"/>
<path d="M891.428 343.077H822.857V411.692H891.428V343.077Z" fill="white"/>
<path d="M857.143 343.077H822.857V377.385H857.143V343.077Z" fill="#FFD2B8"/>
<path d="M891.428 343.077H857.143V377.385H891.428V343.077Z" fill="#EDEDED"/>
<path d="M857.143 377.385H822.857V411.692H857.143V377.385Z" fill="#EFEFEF"/>
<path d="M891.428 377.385H857.143V411.692H891.428V377.385Z" fill="#FFFEFE"/>
<path d="M1165.71 343.077H1097.14V411.692H1165.71V343.077Z" fill="white"/>
<path d="M1131.43 343.077H1097.14V377.385H1131.43V343.077Z" fill="#FFE7DA"/>
<path d="M1165.71 343.077H1131.43V377.385H1165.71V343.077Z" fill="#FFE9DC"/>
<path d="M1131.43 377.385H1097.14V411.692H1131.43V377.385Z" fill="#F7F7F7"/>
<path d="M1234.29 343.077H1165.71V411.692H1234.29V343.077Z" fill="white"/>
<path d="M1234.29 343.077H1200V377.385H1234.29V343.077Z" fill="#E6E6E6"/>
<path d="M1302.86 343.077H1234.29V411.692H1302.86V343.077Z" fill="white"/>
<path d="M1302.86 377.385H1268.57V411.692H1302.86V377.385Z" fill="#FFF1E9"/>
<path d="M1371.43 343.077H1302.86V411.692H1371.43V343.077Z" fill="white"/>
<path d="M1371.43 343.077H1337.14V377.385H1371.43V343.077Z" fill="#FFF4ED"/>
<path d="M1337.14 377.385H1302.86V411.692H1337.14V377.385Z" fill="#F2F2F2"/>
<path d="M1371.43 377.385H1337.14V411.692H1371.43V377.385Z" fill="#FFDCC8"/>
<path d="M1440 343.077H1371.43V411.692H1440V343.077Z" fill="white"/>
<path d="M1440 377.385H1405.71V411.692H1440V377.385Z" fill="#F9F9F9"/>
<path d="M137.143 411.692H68.5713V480.308H137.143V411.692Z" fill="white"/>
<path d="M102.857 411.692H68.5713V446H102.857V411.692Z" fill="#F6F6F6"/>
<path d="M137.143 411.692H102.857V446H137.143V411.692Z" fill="#FFEFE5"/>
<path d="M274.286 411.692H205.714V480.308H274.286V411.692Z" fill="white"/>
<path d="M274.286 411.692H240V446H274.286V411.692Z" fill="#EEEEEE"/>
<path d="M240 446H205.714V480.308H240V446Z" fill="#EBEBEB"/>
<path d="M274.286 446H240V480.308H274.286V446Z" fill="#FFF1EA"/>
<path d="M342.857 411.692H274.286V480.308H342.857V411.692Z" fill="white"/>
<path d="M308.571 411.692H274.286V446H308.571V411.692Z" fill="#FFF2EB"/>
<path d="M342.857 411.692H308.571V446H342.857V411.692Z" fill="#FAFAFA"/>
<path d="M342.857 446H308.571V480.308H342.857V446Z" fill="#FFDBC7"/>
<path d="M411.428 411.692H342.857V480.308H411.428V411.692Z" fill="white"/>
<path d="M377.143 411.692H342.857V446H377.143V411.692Z" fill="#FFF3EC"/>
<path d="M411.428 411.692H377.143V446H411.428V411.692Z" fill="#FFE8DB"/>
<path d="M411.428 446H377.143V480.308H411.428V446Z" fill="#E6E6E6"/>
<path d="M548.571 411.692H480V480.308H548.571V411.692Z" fill="white"/>
<path d="M514.286 411.692H480V446H514.286V411.692Z" fill="#E7E7E7"/>
<path d="M514.286 446H480V480.308H514.286V446Z" fill="#F6F6F6"/>
<path d="M548.571 446H514.286V480.308H548.571V446Z" fill="#EFEFEF"/>
<path d="M617.143 411.692H548.571V480.308H617.143V411.692Z" fill="white"/>
<path d="M582.857 411.692H548.571V446H582.857V411.692Z" fill="#EAEAEA"/>
<path d="M617.143 411.692H582.857V446H617.143V411.692Z" fill="#FCFCFC"/>
<path d="M582.857 446H548.571V480.308H582.857V446Z" fill="#FFE6D7"/>
<path d="M754.286 411.692H685.714V480.308H754.286V411.692Z" fill="white"/>
<path d="M754.286 411.692H720V446H754.286V411.692Z" fill="#FFFDFB"/>
<path d="M720 446H685.714V480.308H720V446Z" fill="#FFE9DC"/>
<path d="M754.286 446H720V480.308H754.286V446Z" fill="#E6E6E6"/>
<path d="M822.857 411.692H754.286V480.308H822.857V411.692Z" fill="white"/>
<path d="M788.571 446H754.286V480.308H788.571V446Z" fill="#EBEBEB"/>
<path d="M960 411.692H891.429V480.308H960V411.692Z" fill="white"/>
<path d="M960 411.692H925.714V446H960V411.692Z" fill="#FFE0CF"/>
<path d="M925.714 446H891.429V480.308H925.714V446Z" fill="#DCDCDC"/>
<path d="M1097.14 411.692H1028.57V480.308H1097.14V411.692Z" fill="white"/>
<path d="M1062.86 411.692H1028.57V446H1062.86V411.692Z" fill="#ECECEC"/>
<path d="M1062.86 446H1028.57V480.308H1062.86V446Z" fill="#E9E9E9"/>
<path d="M1097.14 446H1062.86V480.308H1097.14V446Z" fill="#EFEFEF"/>
<path d="M1302.86 411.692H1234.29V480.308H1302.86V411.692Z" fill="white"/>
<path d="M1268.57 411.692H1234.29V446H1268.57V411.692Z" fill="#EFEFEF"/>
<path d="M1268.57 446H1234.29V480.308H1268.57V446Z" fill="#E5E5E5"/>
<path d="M1440 411.692H1371.43V480.308H1440V411.692Z" fill="white"/>
<path d="M1440 411.692H1405.71V446H1440V411.692Z" fill="#EDEDED"/>
<path d="M1440 446H1405.71V480.308H1440V446Z" fill="#FFE1D0"/>
<path d="M68.5714 480.308H0V548.923H68.5714V480.308Z" fill="white"/>
<path d="M34.2857 480.308H0V514.615H34.2857V480.308Z" fill="#FDFDFD"/>
<path d="M68.5714 480.308H34.2856V514.615H68.5714V480.308Z" fill="#F1F1F1"/>
<path d="M137.143 480.308H68.5713V548.923H137.143V480.308Z" fill="white"/>
<path d="M102.857 480.308H68.5713V514.615H102.857V480.308Z" fill="#ECECEC"/>
<path d="M137.143 480.308H102.857V514.615H137.143V480.308Z" fill="#F9F9F9"/>
<path d="M102.857 514.615H68.5713V548.923H102.857V514.615Z" fill="#F1F1F1"/>
<path d="M137.143 514.615H102.857V548.923H137.143V514.615Z" fill="#F6F6F6"/>
<path d="M274.286 480.308H205.714V548.923H274.286V480.308Z" fill="white"/>
<path d="M240 480.308H205.714V514.615H240V480.308Z" fill="#FFD3B9"/>
<path d="M274.286 480.308H240V514.615H274.286V480.308Z" fill="#EFEFEF"/>
<path d="M240 514.615H205.714V548.923H240V514.615Z" fill="#FFECE1"/>
<path d="M274.286 514.615H240V548.923H274.286V514.615Z" fill="#FCFCFC"/>
<path d="M342.857 480.308H274.286V548.923H342.857V480.308Z" fill="white"/>
<path d="M308.571 480.308H274.286V514.615H308.571V480.308Z" fill="#FFF4EE"/>
<path d="M342.857 480.308H308.571V514.615H342.857V480.308Z" fill="#FDFDFD"/>
<path d="M308.571 514.615H274.286V548.923H308.571V514.615Z" fill="#FFD6BF"/>
<path d="M342.857 514.615H308.571V548.923H342.857V514.615Z" fill="#DFDFDF"/>
<path d="M480 480.308H411.429V548.923H480V480.308Z" fill="white"/>
<path d="M480 480.308H445.714V514.615H480V480.308Z" fill="#E4E4E4"/>
<path d="M445.714 514.615H411.429V548.923H445.714V514.615Z" fill="#FAFAFA"/>
<path d="M480 514.615H445.714V548.923H480V514.615Z" fill="white"/>
<path d="M822.857 480.308H754.286V548.923H822.857V480.308Z" fill="white"/>
<path d="M788.571 480.308H754.286V514.615H788.571V480.308Z" fill="#FFDFCC"/>
<path d="M822.857 480.308H788.571V514.615H822.857V480.308Z" fill="#FFE6D7"/>
<path d="M788.571 514.615H754.286V548.923H788.571V514.615Z" fill="#FFDBC6"/>
<path d="M822.857 514.615H788.571V548.923H822.857V514.615Z" fill="#FFEEE5"/>
<path d="M891.428 480.308H822.857V548.923H891.428V480.308Z" fill="white"/>
<path d="M857.143 480.308H822.857V514.615H857.143V480.308Z" fill="#EAEAEA"/>
<path d="M891.428 480.308H857.143V514.615H891.428V480.308Z" fill="#FFD6BE"/>
<path d="M857.143 514.615H822.857V548.923H857.143V514.615Z" fill="#E2E2E2"/>
<path d="M891.428 514.615H857.143V548.923H891.428V514.615Z" fill="#F6F6F6"/>
<path d="M960 480.308H891.429V548.923H960V480.308Z" fill="white"/>
<path d="M925.714 480.308H891.429V514.615H925.714V480.308Z" fill="#E7E7E7"/>
<path d="M960 480.308H925.714V514.615H960V480.308Z" fill="#FFD0B5"/>
<path d="M925.714 514.615H891.429V548.923H925.714V514.615Z" fill="#EFEFEF"/>
<path d="M1165.71 480.308H1097.14V548.923H1165.71V480.308Z" fill="white"/>
<path d="M1131.43 480.308H1097.14V514.615H1131.43V480.308Z" fill="#F0F0F0"/>
<path d="M1165.71 514.615H1131.43V548.923H1165.71V514.615Z" fill="#ECECEC"/>
<path d="M1234.29 480.308H1165.71V548.923H1234.29V480.308Z" fill="white"/>
<path d="M1234.29 480.308H1200V514.615H1234.29V480.308Z" fill="#F6F6F6"/>
<path d="M1234.29 514.615H1200V548.923H1234.29V514.615Z" fill="#F2F2F2"/>
<path d="M137.143 548.923H68.5713V617.538H137.143V548.923Z" fill="white"/>
<path d="M102.857 548.923H68.5713V583.231H102.857V548.923Z" fill="#FFF2EB"/>
<path d="M137.143 583.231H102.857V617.538H137.143V583.231Z" fill="#E8E8E8"/>
<path d="M205.715 548.923H137.143V617.538H205.715V548.923Z" fill="white"/>
<path d="M205.714 548.923H171.429V583.231H205.714V548.923Z" fill="#F2F2F2"/>
<path d="M171.429 583.231H137.143V617.538H171.429V583.231Z" fill="#FFF0E8"/>
<path d="M205.714 583.231H171.429V617.538H205.714V583.231Z" fill="#E7E7E7"/>
<path d="M342.857 548.923H274.286V617.538H342.857V548.923Z" fill="white"/>
<path d="M308.571 548.923H274.286V583.231H308.571V548.923Z" fill="#FFE0CE"/>
<path d="M342.857 548.923H308.571V583.231H342.857V548.923Z" fill="#F5F5F5"/>
<path d="M308.571 583.231H274.286V617.538H308.571V583.231Z" fill="#F1F1F1"/>
<path d="M411.428 548.923H342.857V617.538H411.428V548.923Z" fill="white"/>
<path d="M377.143 548.923H342.857V583.231H377.143V548.923Z" fill="#EDEDED"/>
<path d="M411.428 548.923H377.143V583.231H411.428V548.923Z" fill="#E3E3E3"/>
<path d="M377.143 583.231H342.857V617.538H377.143V583.231Z" fill="#FFF0E7"/>
<path d="M480 548.923H411.429V617.538H480V548.923Z" fill="white"/>
<path d="M445.714 548.923H411.429V583.231H445.714V548.923Z" fill="#ECECEC"/>
<path d="M480 548.923H445.714V583.231H480V548.923Z" fill="#F0F0F0"/>
<path d="M480 583.231H445.714V617.538H480V583.231Z" fill="#FFF9F6"/>
<path d="M617.143 548.923H548.571V617.538H617.143V548.923Z" fill="white"/>
<path d="M582.857 548.923H548.571V583.231H582.857V548.923Z" fill="#FFD1B6"/>
<path d="M617.143 548.923H582.857V583.231H617.143V548.923Z" fill="#FFD1B6"/>
<path d="M685.714 548.923H617.143V617.538H685.714V548.923Z" fill="white"/>
<path d="M651.429 548.923H617.143V583.231H651.429V548.923Z" fill="#F9F9F9"/>
<path d="M685.714 548.923H651.429V583.231H685.714V548.923Z" fill="#F6F6F6"/>
<path d="M651.429 583.231H617.143V617.538H651.429V583.231Z" fill="#E9E9E9"/>
<path d="M685.714 583.231H651.429V617.538H685.714V583.231Z" fill="#E0E0E0"/>
<path d="M891.428 548.923H822.857V617.538H891.428V548.923Z" fill="white"/>
<path d="M857.143 548.923H822.857V583.231H857.143V548.923Z" fill="#FFDDC8"/>
<path d="M891.428 548.923H857.143V583.231H891.428V548.923Z" fill="#FEFEFE"/>
<path d="M857.143 583.231H822.857V617.538H857.143V583.231Z" fill="white"/>
<path d="M891.428 583.231H857.143V617.538H891.428V583.231Z" fill="#E2E2E2"/>
<path d="M960 548.923H891.429V617.538H960V548.923Z" fill="white"/>
<path d="M925.714 548.923H891.429V583.231H925.714V548.923Z" fill="#EEEEEE"/>
<path d="M960 548.923H925.714V583.231H960V548.923Z" fill="#FDFDFD"/>
<path d="M925.714 583.231H891.429V617.538H925.714V583.231Z" fill="#E8E8E8"/>
<path d="M960 583.231H925.714V617.538H960V583.231Z" fill="#EEEEEE"/>
<path d="M1097.14 548.923H1028.57V617.538H1097.14V548.923Z" fill="white"/>
<path d="M1097.14 548.923H1062.86V583.231H1097.14V548.923Z" fill="#E8E8E8"/>
<path d="M1062.86 583.231H1028.57V617.538H1062.86V583.231Z" fill="#DDDDDD"/>
<path d="M1097.14 583.231H1062.86V617.538H1097.14V583.231Z" fill="#FFD1B6"/>
<path d="M1165.71 548.923H1097.14V617.538H1165.71V548.923Z" fill="white"/>
<path d="M1131.43 548.923H1097.14V583.231H1131.43V548.923Z" fill="white"/>
<path d="M1131.43 583.231H1097.14V617.538H1131.43V583.231Z" fill="#FFF3EC"/>
<path d="M1165.71 583.231H1131.43V617.538H1165.71V583.231Z" fill="#FFEADE"/>
<path d="M1234.29 548.923H1165.71V617.538H1234.29V548.923Z" fill="white"/>
<path d="M1200 548.923H1165.71V583.231H1200V548.923Z" fill="#F4F4F4"/>
<path d="M1234.29 548.923H1200V583.231H1234.29V548.923Z" fill="#FFF0E7"/>
<path d="M1200 583.231H1165.71V617.538H1200V583.231Z" fill="#DFDFDF"/>
<path d="M1234.29 583.231H1200V617.538H1234.29V583.231Z" fill="#EDEDED"/>
<path d="M1302.86 548.923H1234.29V617.538H1302.86V548.923Z" fill="white"/>
<path d="M1302.86 548.923H1268.57V583.231H1302.86V548.923Z" fill="#EFEFEF"/>
<path d="M1268.57 583.231H1234.29V617.538H1268.57V583.231Z" fill="#ECECEC"/>
<path d="M1302.86 583.231H1268.57V617.538H1302.86V583.231Z" fill="#FAFAFA"/>
<path d="M1371.43 548.923H1302.86V617.538H1371.43V548.923Z" fill="white"/>
<path d="M1337.14 548.923H1302.86V583.231H1337.14V548.923Z" fill="#F9F9F9"/>
<path d="M1371.43 548.923H1337.14V583.231H1371.43V548.923Z" fill="#E3E3E3"/>
<path d="M1337.14 583.231H1302.86V617.538H1337.14V583.231Z" fill="#F0F0F0"/>
<path d="M1371.43 583.231H1337.14V617.538H1371.43V583.231Z" fill="#E3E3E3"/>
<path d="M1440 548.923H1371.43V617.538H1440V548.923Z" fill="white"/>
<path d="M1440 548.923H1405.71V583.231H1440V548.923Z" fill="#EAEAEA"/>
<path d="M1440 583.231H1405.71V617.538H1440V583.231Z" fill="#F7F7F7"/>
<path d="M68.5714 617.538H0V686.154H68.5714V617.538Z" fill="white"/>
<path d="M34.2857 617.538H0V651.846H34.2857V617.538Z" fill="#FFD0B5"/>
<path d="M68.5714 617.538H34.2856V651.846H68.5714V617.538Z" fill="#F3F3F3"/>
<path d="M34.2857 651.846H0V686.154H34.2857V651.846Z" fill="#F0F0F0"/>
<path d="M68.5714 651.846H34.2856V686.154H68.5714V651.846Z" fill="#FFEDE2"/>
<path d="M137.143 617.538H68.5713V686.154H137.143V617.538Z" fill="white"/>
<path d="M102.857 617.538H68.5713V651.846H102.857V617.538Z" fill="#FFEFE5"/>
<path d="M137.143 617.538H102.857V651.846H137.143V617.538Z" fill="#FFD5BC"/>
<path d="M102.857 651.846H68.5713V686.154H102.857V651.846Z" fill="#F5F5F5"/>
<path d="M137.143 651.846H102.857V686.154H137.143V651.846Z" fill="#F6F6F6"/>
<path d="M205.715 617.538H137.143V686.154H205.715V617.538Z" fill="white"/>
<path d="M171.429 617.538H137.143V651.846H171.429V617.538Z" fill="#FFD4BB"/>
<path d="M205.714 617.538H171.429V651.846H205.714V617.538Z" fill="#EEEEEE"/>
<path d="M171.429 651.846H137.143V686.154H171.429V651.846Z" fill="#ECECEC"/>
<path d="M205.714 651.846H171.429V686.154H205.714V651.846Z" fill="#EEEEEE"/>
<path d="M342.857 617.538H274.286V686.154H342.857V617.538Z" fill="white"/>
<path d="M308.571 617.538H274.286V651.846H308.571V617.538Z" fill="#F8F8F8"/>
<path d="M342.857 617.538H308.571V651.846H342.857V617.538Z" fill="#FFFEFD"/>
<path d="M308.571 651.846H274.286V686.154H308.571V651.846Z" fill="#FFD6BD"/>
<path d="M342.857 651.846H308.571V686.154H342.857V651.846Z" fill="#FFFCFA"/>
<path d="M480 617.538H411.429V686.154H480V617.538Z" fill="white"/>
<path d="M480 617.538H445.714V651.846H480V617.538Z" fill="#FFFBF8"/>
<path d="M445.714 651.846H411.429V686.154H445.714V651.846Z" fill="#FFEDE3"/>
<path d="M480 651.846H445.714V686.154H480V651.846Z" fill="white"/>
<path d="M617.143 617.538H548.571V686.154H617.143V617.538Z" fill="white"/>
<path d="M582.857 617.538H548.571V651.846H582.857V617.538Z" fill="#E3E3E3"/>
<path d="M617.143 617.538H582.857V651.846H617.143V617.538Z" fill="#F3F3F3"/>
<path d="M582.857 651.846H548.571V686.154H582.857V651.846Z" fill="#EEEEEE"/>
<path d="M617.143 651.846H582.857V686.154H617.143V651.846Z" fill="#FFD5BD"/>
<path d="M754.286 617.538H685.714V686.154H754.286V617.538Z" fill="white"/>
<path d="M720 617.538H685.714V651.846H720V617.538Z" fill="#FDFDFD"/>
<path d="M720 651.846H685.714V686.154H720V651.846Z" fill="#FFF4ED"/>
<path d="M754.286 651.846H720V686.154H754.286V651.846Z" fill="#F6F6F6"/>
<path d="M822.857 617.538H754.286V686.154H822.857V617.538Z" fill="white"/>
<path d="M788.571 617.538H754.286V651.846H788.571V617.538Z" fill="#FEFEFE"/>
<path d="M822.857 617.538H788.571V651.846H822.857V617.538Z" fill="#FFF5EF"/>
<path d="M788.571 651.846H754.286V686.154H788.571V651.846Z" fill="#FFF1E8"/>
<path d="M822.857 651.846H788.571V686.154H822.857V651.846Z" fill="#F4F4F4"/>
<path d="M891.428 617.538H822.857V686.154H891.428V617.538Z" fill="white"/>
<path d="M857.143 617.538H822.857V651.846H857.143V617.538Z" fill="#FFEDE3"/>
<path d="M891.428 617.538H857.143V651.846H891.428V617.538Z" fill="#F9F9F9"/>
<path d="M857.143 651.846H822.857V686.154H857.143V651.846Z" fill="#F4F4F4"/>
<path d="M1028.57 617.538H960V686.154H1028.57V617.538Z" fill="white"/>
<path d="M994.286 617.538H960V651.846H994.286V617.538Z" fill="#E9E9E9"/>
<path d="M1028.57 617.538H994.286V651.846H1028.57V617.538Z" fill="#EAEAEA"/>
<path d="M994.286 651.846H960V686.154H994.286V651.846Z" fill="#FFF9F6"/>
<path d="M1028.57 651.846H994.286V686.154H1028.57V651.846Z" fill="#E7E7E7"/>
<path d="M1097.14 617.538H1028.57V686.154H1097.14V617.538Z" fill="white"/>
<path d="M1062.86 617.538H1028.57V651.846H1062.86V617.538Z" fill="#F9F9F9"/>
<path d="M1097.14 617.538H1062.86V651.846H1097.14V617.538Z" fill="#FCFCFC"/>
<path d="M1097.14 651.846H1062.86V686.154H1097.14V651.846Z" fill="#E7E7E7"/>
<path d="M1165.71 617.538H1097.14V686.154H1165.71V617.538Z" fill="white"/>
<path d="M1131.43 617.538H1097.14V651.846H1131.43V617.538Z" fill="#EEEEEE"/>
<path d="M1165.71 617.538H1131.43V651.846H1165.71V617.538Z" fill="#FFE3D3"/>
<path d="M1131.43 651.846H1097.14V686.154H1131.43V651.846Z" fill="#E9E9E9"/>
<path d="M1165.71 651.846H1131.43V686.154H1165.71V651.846Z" fill="#FFD0B5"/>
<path d="M1302.86 617.538H1234.29V686.154H1302.86V617.538Z" fill="white"/>
<path d="M1268.57 617.538H1234.29V651.846H1268.57V617.538Z" fill="#E2E2E2"/>
<path d="M1302.86 617.538H1268.57V651.846H1302.86V617.538Z" fill="#F6F6F6"/>
<path d="M1268.57 651.846H1234.29V686.154H1268.57V651.846Z" fill="#FBFBFB"/>
<path d="M1302.86 651.846H1268.57V686.154H1302.86V651.846Z" fill="#F9F9F9"/>
<path d="M1440 617.538H1371.43V686.154H1440V617.538Z" fill="white"/>
<path d="M1405.71 617.538H1371.43V651.846H1405.71V617.538Z" fill="#ECECEC"/>
<path d="M1440 617.538H1405.71V651.846H1440V617.538Z" fill="#FFF6F1"/>
<path d="M1405.71 651.846H1371.43V686.154H1405.71V651.846Z" fill="#FFEEE4"/>
<path d="M68.5714 686.154H0V754.769H68.5714V686.154Z" fill="white"/>
<path d="M34.2857 686.154H0V720.462H34.2857V686.154Z" fill="#E6E6E6"/>
<path d="M68.5714 686.154H34.2856V720.462H68.5714V686.154Z" fill="#FFE1D0"/>
<path d="M34.2857 720.462H0V754.769H34.2857V720.462Z" fill="#FFFDFB"/>
<path d="M68.5714 720.462H34.2856V754.769H68.5714V720.462Z" fill="#E8E8E8"/>
<path d="M137.143 686.154H68.5713V754.769H137.143V686.154Z" fill="white"/>
<path d="M102.857 686.154H68.5713V720.462H102.857V686.154Z" fill="#FFFBF9"/>
<path d="M137.143 686.154H102.857V720.462H137.143V686.154Z" fill="#FFF9F5"/>
<path d="M102.857 720.462H68.5713V754.769H102.857V720.462Z" fill="#EEEEEE"/>
<path d="M137.143 720.462H102.857V754.769H137.143V720.462Z" fill="#FDFDFD"/>
<path d="M205.715 686.154H137.143V754.769H205.715V686.154Z" fill="white"/>
<path d="M171.429 720.462H137.143V754.769H171.429V720.462Z" fill="#FFF8F4"/>
<path d="M205.714 720.462H171.429V754.769H205.714V720.462Z" fill="#FFE4D4"/>
<path d="M274.286 686.154H205.714V754.769H274.286V686.154Z" fill="white"/>
<path d="M240 686.154H205.714V720.462H240V686.154Z" fill="#DBDBDB"/>
<path d="M274.286 686.154H240V720.462H274.286V686.154Z" fill="#EDEDED"/>
<path d="M240 720.462H205.714V754.769H240V720.462Z" fill="#FFF9F5"/>
<path d="M274.286 720.462H240V754.769H274.286V720.462Z" fill="#F9F9F9"/>
<path d="M342.857 686.154H274.286V754.769H342.857V686.154Z" fill="white"/>
<path d="M308.571 686.154H274.286V720.462H308.571V686.154Z" fill="#F4F4F4"/>
<path d="M342.857 686.154H308.571V720.462H342.857V686.154Z" fill="#F2F2F2"/>
<path d="M308.571 720.462H274.286V754.769H308.571V720.462Z" fill="#FFFEFE"/>
<path d="M342.857 720.462H308.571V754.769H342.857V720.462Z" fill="#FFD9C3"/>
<path d="M411.428 686.154H342.857V754.769H411.428V686.154Z" fill="white"/>
<path d="M377.143 686.154H342.857V720.462H377.143V686.154Z" fill="#EBEBEB"/>
<path d="M377.143 720.462H342.857V754.769H377.143V720.462Z" fill="#FFF5F0"/>
<path d="M411.428 720.462H377.143V754.769H411.428V720.462Z" fill="#FFDECB"/>
<path d="M480 686.154H411.429V754.769H480V686.154Z" fill="white"/>
<path d="M445.714 686.154H411.429V720.462H445.714V686.154Z" fill="#FFFEFD"/>
<path d="M480 686.154H445.714V720.462H480V686.154Z" fill="#FFD6BE"/>
<path d="M480 720.462H445.714V754.769H480V720.462Z" fill="#E3E3E3"/>
<path d="M548.571 686.154H480V754.769H548.571V686.154Z" fill="white"/>
<path d="M548.571 686.154H514.286V720.462H548.571V686.154Z" fill="#F1F1F1"/>
<path d="M514.286 720.462H480V754.769H514.286V720.462Z" fill="#E6E6E6"/>
<path d="M548.571 720.462H514.286V754.769H548.571V720.462Z" fill="#EDEDED"/>
<path d="M617.143 686.154H548.571V754.769H617.143V686.154Z" fill="white"/>
<path d="M582.857 686.154H548.571V720.462H582.857V686.154Z" fill="#E7E7E7"/>
<path d="M617.143 686.154H582.857V720.462H617.143V686.154Z" fill="#E8E8E8"/>
<path d="M582.857 720.462H548.571V754.769H582.857V720.462Z" fill="#FFDBC5"/>
<path d="M617.143 720.462H582.857V754.769H617.143V720.462Z" fill="#EDEDED"/>
<path d="M685.714 686.154H617.143V754.769H685.714V686.154Z" fill="white"/>
<path d="M651.429 686.154H617.143V720.462H651.429V686.154Z" fill="#FFEADD"/>
<path d="M685.714 686.154H651.429V720.462H685.714V686.154Z" fill="#FFFDFB"/>
<path d="M651.429 720.462H617.143V754.769H651.429V720.462Z" fill="#EBEBEB"/>
<path d="M685.714 720.462H651.429V754.769H685.714V720.462Z" fill="#FCFCFC"/>
<path d="M822.857 686.154H754.286V754.769H822.857V686.154Z" fill="white"/>
<path d="M788.571 686.154H754.286V720.462H788.571V686.154Z" fill="#FEFEFE"/>
<path d="M788.571 720.462H754.286V754.769H788.571V720.462Z" fill="#E9E9E9"/>
<path d="M822.857 720.462H788.571V754.769H822.857V720.462Z" fill="#F0F0F0"/>
<path d="M891.428 686.154H822.857V754.769H891.428V686.154Z" fill="white"/>
<path d="M857.143 686.154H822.857V720.462H857.143V686.154Z" fill="#F0F0F0"/>
<path d="M891.428 686.154H857.143V720.462H891.428V686.154Z" fill="#DDDDDD"/>
<path d="M891.428 720.462H857.143V754.769H891.428V720.462Z" fill="#FFD7C0"/>
<path d="M960 686.154H891.429V754.769H960V686.154Z" fill="white"/>
<path d="M925.714 686.154H891.429V720.462H925.714V686.154Z" fill="#FAFAFA"/>
<path d="M960 686.154H925.714V720.462H960V686.154Z" fill="#EBEBEB"/>
<path d="M925.714 720.462H891.429V754.769H925.714V720.462Z" fill="#E9E9E9"/>
<path d="M960 720.462H925.714V754.769H960V720.462Z" fill="#FAFAFA"/>
<path d="M1028.57 686.154H960V754.769H1028.57V686.154Z" fill="white"/>
<path d="M994.286 686.154H960V720.462H994.286V686.154Z" fill="#E3E3E3"/>
<path d="M994.286 720.462H960V754.769H994.286V720.462Z" fill="#EDEDED"/>
<path d="M1097.14 686.154H1028.57V754.769H1097.14V686.154Z" fill="white"/>
<path d="M1062.86 686.154H1028.57V720.462H1062.86V686.154Z" fill="#EEEEEE"/>
<path d="M1097.14 686.154H1062.86V720.462H1097.14V686.154Z" fill="#FFD2B8"/>
<path d="M1062.86 720.462H1028.57V754.769H1062.86V720.462Z" fill="#E8E8E8"/>
<path d="M1165.71 686.154H1097.14V754.769H1165.71V686.154Z" fill="white"/>
<path d="M1131.43 686.154H1097.14V720.462H1131.43V686.154Z" fill="#E4E4E4"/>
<path d="M1165.71 686.154H1131.43V720.462H1165.71V686.154Z" fill="#E6E6E6"/>
<path d="M1131.43 720.462H1097.14V754.769H1131.43V720.462Z" fill="#E4E4E4"/>
<path d="M1165.71 720.462H1131.43V754.769H1165.71V720.462Z" fill="#FBFBFB"/>
<path d="M1234.29 686.154H1165.71V754.769H1234.29V686.154Z" fill="white"/>
<path d="M1200 686.154H1165.71V720.462H1200V686.154Z" fill="#EEEEEE"/>
<path d="M1234.29 686.154H1200V720.462H1234.29V686.154Z" fill="#FFE2D0"/>
<path d="M1200 720.462H1165.71V754.769H1200V720.462Z" fill="#F3F3F3"/>
<path d="M1234.29 720.462H1200V754.769H1234.29V720.462Z" fill="#FCFCFC"/>
<path d="M1302.86 686.154H1234.29V754.769H1302.86V686.154Z" fill="white"/>
<path d="M1268.57 686.154H1234.29V720.462H1268.57V686.154Z" fill="#FFF8F4"/>
<path d="M1302.86 686.154H1268.57V720.462H1302.86V686.154Z" fill="#FFECE1"/>
<path d="M1268.57 720.462H1234.29V754.769H1268.57V720.462Z" fill="#EAEAEA"/>
<path d="M1302.86 720.462H1268.57V754.769H1302.86V720.462Z" fill="#E7E7E7"/>
<path d="M1371.43 686.154H1302.86V754.769H1371.43V686.154Z" fill="white"/>
<path d="M1337.14 686.154H1302.86V720.462H1337.14V686.154Z" fill="#FFDECA"/>
<path d="M1371.43 686.154H1337.14V720.462H1371.43V686.154Z" fill="#FFF7F3"/>
<path d="M1337.14 720.462H1302.86V754.769H1337.14V720.462Z" fill="#FFFEFE"/>
<path d="M1371.43 720.462H1337.14V754.769H1371.43V720.462Z" fill="#FFDECB"/>
<path d="M68.5714 754.769H0V823.385H68.5714V754.769Z" fill="white"/>
<path d="M34.2857 754.769H0V789.077H34.2857V754.769Z" fill="#F9F9F9"/>
<path d="M68.5714 754.769H34.2856V789.077H68.5714V754.769Z" fill="#FFE8DA"/>
<path d="M34.2857 789.077H0V823.385H34.2857V789.077Z" fill="#FCFCFC"/>
<path d="M68.5714 789.077H34.2856V823.385H68.5714V789.077Z" fill="#F6F6F6"/>
<path d="M137.143 754.769H68.5713V823.385H137.143V754.769Z" fill="white"/>
<path d="M102.857 754.769H68.5713V789.077H102.857V754.769Z" fill="#FAFAFA"/>
<path d="M137.143 754.769H102.857V789.077H137.143V754.769Z" fill="#DCDCDC"/>
<path d="M102.857 789.077H68.5713V823.385H102.857V789.077Z" fill="#DDDDDD"/>
<path d="M137.143 789.077H102.857V823.385H137.143V789.077Z" fill="#FDFDFD"/>
<path d="M205.715 754.769H137.143V823.385H205.715V754.769Z" fill="white"/>
<path d="M171.429 754.769H137.143V789.077H171.429V754.769Z" fill="#FFD6BE"/>
<path d="M205.714 754.769H171.429V789.077H205.714V754.769Z" fill="#FEFEFE"/>
<path d="M171.429 789.077H137.143V823.385H171.429V789.077Z" fill="#FEFEFE"/>
<path d="M205.714 789.077H171.429V823.385H205.714V789.077Z" fill="#FFFCFB"/>
<path d="M274.286 754.769H205.714V823.385H274.286V754.769Z" fill="white"/>
<path d="M240 754.769H205.714V789.077H240V754.769Z" fill="#FAFAFA"/>
<path d="M274.286 754.769H240V789.077H274.286V754.769Z" fill="#F4F4F4"/>
<path d="M240 789.077H205.714V823.385H240V789.077Z" fill="#FFD1B7"/>
<path d="M274.286 789.077H240V823.385H274.286V789.077Z" fill="#FFF4ED"/>
<path d="M342.857 754.769H274.286V823.385H342.857V754.769Z" fill="white"/>
<path d="M308.571 754.769H274.286V789.077H308.571V754.769Z" fill="#E5E5E5"/>
<path d="M342.857 754.769H308.571V789.077H342.857V754.769Z" fill="#F3F3F3"/>
<path d="M308.571 789.077H274.286V823.385H308.571V789.077Z" fill="#FFF3EC"/>
<path d="M342.857 789.077H308.571V823.385H342.857V789.077Z" fill="#FFE0CE"/>
<path d="M411.428 754.769H342.857V823.385H411.428V754.769Z" fill="white"/>
<path d="M377.143 754.769H342.857V789.077H377.143V754.769Z" fill="#F5F5F5"/>
<path d="M411.428 754.769H377.143V789.077H411.428V754.769Z" fill="#FFEEE4"/>
<path d="M377.143 789.077H342.857V823.385H377.143V789.077Z" fill="#F9F9F9"/>
<path d="M411.428 789.077H377.143V823.385H411.428V789.077Z" fill="#FFEADD"/>
<path d="M480 754.769H411.429V823.385H480V754.769Z" fill="white"/>
<path d="M445.714 754.769H411.429V789.077H445.714V754.769Z" fill="#E3E3E3"/>
<path d="M480 754.769H445.714V789.077H480V754.769Z" fill="#FFDAC4"/>
<path d="M445.714 789.077H411.429V823.385H445.714V789.077Z" fill="#FFD8C1"/>
<path d="M480 789.077H445.714V823.385H480V789.077Z" fill="#FFF1E8"/>
<path d="M548.571 754.769H480V823.385H548.571V754.769Z" fill="white"/>
<path d="M514.286 754.769H480V789.077H514.286V754.769Z" fill="#E7E7E7"/>
<path d="M548.571 754.769H514.286V789.077H548.571V754.769Z" fill="#EBEBEB"/>
<path d="M514.286 789.077H480V823.385H514.286V789.077Z" fill="#FAFAFA"/>
<path d="M548.571 789.077H514.286V823.385H548.571V789.077Z" fill="#EFEFEF"/>
<path d="M617.143 754.769H548.571V823.385H617.143V754.769Z" fill="white"/>
<path d="M582.857 754.769H548.571V789.077H582.857V754.769Z" fill="#EFEFEF"/>
<path d="M617.143 754.769H582.857V789.077H617.143V754.769Z" fill="#E5E5E5"/>
<path d="M582.857 789.077H548.571V823.385H582.857V789.077Z" fill="#F3F3F3"/>
<path d="M617.143 789.077H582.857V823.385H617.143V789.077Z" fill="#FFECE2"/>
<path d="M685.714 754.769H617.143V823.385H685.714V754.769Z" fill="white"/>
<path d="M651.429 754.769H617.143V789.077H651.429V754.769Z" fill="#F0F0F0"/>
<path d="M685.714 754.769H651.429V789.077H685.714V754.769Z" fill="#E6E6E6"/>
<path d="M651.429 789.077H617.143V823.385H651.429V789.077Z" fill="#FFE8DA"/>
<path d="M685.714 789.077H651.429V823.385H685.714V789.077Z" fill="#FFF1E9"/>
<path d="M754.286 754.769H685.714V823.385H754.286V754.769Z" fill="white"/>
<path d="M720 754.769H685.714V789.077H720V754.769Z" fill="white"/>
<path d="M754.286 754.769H720V789.077H754.286V754.769Z" fill="#F5F5F5"/>
<path d="M720 789.077H685.714V823.385H720V789.077Z" fill="#EEEEEE"/>
<path d="M754.286 789.077H720V823.385H754.286V789.077Z" fill="#FFF4EE"/>
<path d="M822.857 754.769H754.286V823.385H822.857V754.769Z" fill="white"/>
<path d="M788.571 754.769H754.286V789.077H788.571V754.769Z" fill="#E7E7E7"/>
<path d="M822.857 754.769H788.571V789.077H822.857V754.769Z" fill="#FFE2D1"/>
<path d="M788.571 789.077H754.286V823.385H788.571V789.077Z" fill="#F7F7F7"/>
<path d="M822.857 789.077H788.571V823.385H822.857V789.077Z" fill="#FFFDFC"/>
<path d="M891.428 754.769H822.857V823.385H891.428V754.769Z" fill="white"/>
<path d="M857.143 754.769H822.857V789.077H857.143V754.769Z" fill="#F2F2F2"/>
<path d="M891.428 754.769H857.143V789.077H891.428V754.769Z" fill="#FFDFCC"/>
<path d="M857.143 789.077H822.857V823.385H857.143V789.077Z" fill="#FFEBDF"/>
<path d="M891.428 789.077H857.143V823.385H891.428V789.077Z" fill="#FFEEE4"/>
<path d="M960 754.769H891.429V823.385H960V754.769Z" fill="white"/>
<path d="M925.714 754.769H891.429V789.077H925.714V754.769Z" fill="white"/>
<path d="M960 754.769H925.714V789.077H960V754.769Z" fill="#FFE6D8"/>
<path d="M925.714 789.077H891.429V823.385H925.714V789.077Z" fill="#FFF0E8"/>
<path d="M960 789.077H925.714V823.385H960V789.077Z" fill="#FFFDFB"/>
<path d="M1028.57 754.769H960V823.385H1028.57V754.769Z" fill="white"/>
<path d="M994.286 754.769H960V789.077H994.286V754.769Z" fill="#F2F2F2"/>
<path d="M1028.57 754.769H994.286V789.077H1028.57V754.769Z" fill="#FEFEFE"/>
<path d="M994.286 789.077H960V823.385H994.286V789.077Z" fill="#FFE3D3"/>
<path d="M1028.57 789.077H994.286V823.385H1028.57V789.077Z" fill="#E4E4E4"/>
<path d="M1097.14 754.769H1028.57V823.385H1097.14V754.769Z" fill="white"/>
<path d="M1062.86 754.769H1028.57V789.077H1062.86V754.769Z" fill="#F0F0F0"/>
<path d="M1097.14 754.769H1062.86V789.077H1097.14V754.769Z" fill="#DEDEDE"/>
<path d="M1062.86 789.077H1028.57V823.385H1062.86V789.077Z" fill="#F2F2F2"/>
<path d="M1097.14 789.077H1062.86V823.385H1097.14V789.077Z" fill="#FFDDCA"/>
<path d="M1165.71 754.769H1097.14V823.385H1165.71V754.769Z" fill="white"/>
<path d="M1131.43 754.769H1097.14V789.077H1131.43V754.769Z" fill="#FFDDC9"/>
<path d="M1165.71 754.769H1131.43V789.077H1165.71V754.769Z" fill="#FFF5EF"/>
<path d="M1131.43 789.077H1097.14V823.385H1131.43V789.077Z" fill="#FFEADD"/>
<path d="M1165.71 789.077H1131.43V823.385H1165.71V789.077Z" fill="#E8E8E8"/>
<path d="M1234.29 754.769H1165.71V823.385H1234.29V754.769Z" fill="white"/>
<path d="M1200 754.769H1165.71V789.077H1200V754.769Z" fill="#FAFAFA"/>
<path d="M1234.29 754.769H1200V789.077H1234.29V754.769Z" fill="#FFD8C1"/>
<path d="M1200 789.077H1165.71V823.385H1200V789.077Z" fill="#F2F2F2"/>
<path d="M1234.29 789.077H1200V823.385H1234.29V789.077Z" fill="#F1F1F1"/>
<path d="M1302.86 754.769H1234.29V823.385H1302.86V754.769Z" fill="white"/>
<path d="M1268.57 754.769H1234.29V789.077H1268.57V754.769Z" fill="#FDFDFD"/>
<path d="M1302.86 754.769H1268.57V789.077H1302.86V754.769Z" fill="#E8E8E8"/>
<path d="M1268.57 789.077H1234.29V823.385H1268.57V789.077Z" fill="#F1F1F1"/>
<path d="M1302.86 789.077H1268.57V823.385H1302.86V789.077Z" fill="#FFDDC9"/>
<path d="M1371.43 754.769H1302.86V823.385H1371.43V754.769Z" fill="white"/>
<path d="M1337.14 754.769H1302.86V789.077H1337.14V754.769Z" fill="#E0E0E0"/>
<path d="M1371.43 754.769H1337.14V789.077H1371.43V754.769Z" fill="white"/>
<path d="M1337.14 789.077H1302.86V823.385H1337.14V789.077Z" fill="#ECECEC"/>
<path d="M1371.43 789.077H1337.14V823.385H1371.43V789.077Z" fill="#F3F3F3"/>
<path d="M1440 754.769H1371.43V823.385H1440V754.769Z" fill="white"/>
<path d="M1405.71 754.769H1371.43V789.077H1405.71V754.769Z" fill="#FEFEFE"/>
<path d="M1440 754.769H1405.71V789.077H1440V754.769Z" fill="#EDEDED"/>
<path d="M1405.71 789.077H1371.43V823.385H1405.71V789.077Z" fill="#FFEFE5"/>
<path d="M1440 789.077H1405.71V823.385H1440V789.077Z" fill="#EEEEEE"/>
<path d="M68.5714 823.385H0V892H68.5714V823.385Z" fill="white"/>
<path d="M34.2857 823.385H0V857.692H34.2857V823.385Z" fill="#FCFCFC"/>
<path d="M68.5714 823.385H34.2856V857.692H68.5714V823.385Z" fill="#EEEEEE"/>
<path d="M34.2857 857.692H0V892H34.2857V857.692Z" fill="#EFEFEF"/>
<path d="M68.5714 857.692H34.2856V892H68.5714V857.692Z" fill="#FFE6D7"/>
<path d="M137.143 823.385H68.5713V892H137.143V823.385Z" fill="white"/>
<path d="M102.857 823.385H68.5713V857.692H102.857V823.385Z" fill="#F6F6F6"/>
<path d="M137.143 823.385H102.857V857.692H137.143V823.385Z" fill="#FFFCFA"/>
<path d="M102.857 857.692H68.5713V892H102.857V857.692Z" fill="#F4F4F4"/>
<path d="M137.143 857.692H102.857V892H137.143V857.692Z" fill="#FFE4D4"/>
<path d="M205.715 823.385H137.143V892H205.715V823.385Z" fill="white"/>
<path d="M171.429 823.385H137.143V857.692H171.429V823.385Z" fill="#FFECE0"/>
<path d="M205.714 823.385H171.429V857.692H205.714V823.385Z" fill="#FDFDFD"/>
<path d="M171.429 857.692H137.143V892H171.429V857.692Z" fill="#E2E2E2"/>
<path d="M205.714 857.692H171.429V892H205.714V857.692Z" fill="#FFF7F2"/>
<path d="M274.286 823.385H205.714V892H274.286V823.385Z" fill="white"/>
<path d="M240 823.385H205.714V857.692H240V823.385Z" fill="#F5F5F5"/>
<path d="M274.286 823.385H240V857.692H274.286V823.385Z" fill="#F9F9F9"/>
<path d="M240 857.692H205.714V892H240V857.692Z" fill="#FFE6D8"/>
<path d="M274.286 857.692H240V892H274.286V857.692Z" fill="#EAEAEA"/>
<path d="M342.857 823.385H274.286V892H342.857V823.385Z" fill="white"/>
<path d="M308.571 823.385H274.286V857.692H308.571V823.385Z" fill="#EEEEEE"/>
<path d="M342.857 823.385H308.571V857.692H342.857V823.385Z" fill="#FFF5EF"/>
<path d="M308.571 857.692H274.286V892H308.571V857.692Z" fill="#EAEAEA"/>
<path d="M342.857 857.692H308.571V892H342.857V857.692Z" fill="#FFDFCC"/>
<path d="M411.428 823.385H342.857V892H411.428V823.385Z" fill="white"/>
<path d="M377.143 823.385H342.857V857.692H377.143V823.385Z" fill="#E9E9E9"/>
<path d="M411.428 823.385H377.143V857.692H411.428V823.385Z" fill="#F3F3F3"/>
<path d="M377.143 857.692H342.857V892H377.143V857.692Z" fill="#EFEFEF"/>
<path d="M411.428 857.692H377.143V892H411.428V857.692Z" fill="#F1F1F1"/>
<path d="M480 823.385H411.429V892H480V823.385Z" fill="white"/>
<path d="M445.714 823.385H411.429V857.692H445.714V823.385Z" fill="#F4F4F4"/>
<path d="M480 823.385H445.714V857.692H480V823.385Z" fill="#FFF5EF"/>
<path d="M445.714 857.692H411.429V892H445.714V857.692Z" fill="#DEDEDE"/>
<path d="M480 857.692H445.714V892H480V857.692Z" fill="#F0F0F0"/>
<path d="M548.571 823.385H480V892H548.571V823.385Z" fill="white"/>
<path d="M514.286 823.385H480V857.692H514.286V823.385Z" fill="#FFD2B8"/>
<path d="M548.571 823.385H514.286V857.692H548.571V823.385Z" fill="#ECECEC"/>
<path d="M514.286 857.692H480V892H514.286V857.692Z" fill="#FBFBFB"/>
<path d="M548.571 857.692H514.286V892H548.571V857.692Z" fill="white"/>
<path d="M617.143 823.385H548.571V892H617.143V823.385Z" fill="white"/>
<path d="M582.857 823.385H548.571V857.692H582.857V823.385Z" fill="#F6F6F6"/>
<path d="M617.143 823.385H582.857V857.692H617.143V823.385Z" fill="#FFE2D1"/>
<path d="M582.857 857.692H548.571V892H582.857V857.692Z" fill="#FFD5BD"/>
<path d="M617.143 857.692H582.857V892H617.143V857.692Z" fill="#FBFBFB"/>
<path d="M685.714 823.385H617.143V892H685.714V823.385Z" fill="white"/>
<path d="M651.429 823.385H617.143V857.692H651.429V823.385Z" fill="#FFF3EC"/>
<path d="M685.714 823.385H651.429V857.692H685.714V823.385Z" fill="#FFF4ED"/>
<path d="M651.429 857.692H617.143V892H651.429V857.692Z" fill="#FBFBFB"/>
<path d="M685.714 857.692H651.429V892H685.714V857.692Z" fill="#F8F8F8"/>
<path d="M754.286 823.385H685.714V892H754.286V823.385Z" fill="white"/>
<path d="M720 823.385H685.714V857.692H720V823.385Z" fill="#FFE7D9"/>
<path d="M754.286 823.385H720V857.692H754.286V823.385Z" fill="#FFE3D2"/>
<path d="M720 857.692H685.714V892H720V857.692Z" fill="#FBFBFB"/>
<path d="M754.286 857.692H720V892H754.286V857.692Z" fill="#FFF0E7"/>
<path d="M822.857 823.385H754.286V892H822.857V823.385Z" fill="white"/>
<path d="M788.571 823.385H754.286V857.692H788.571V823.385Z" fill="#F3F3F3"/>
<path d="M822.857 823.385H788.571V857.692H822.857V823.385Z" fill="#F8F8F8"/>
<path d="M788.571 857.692H754.286V892H788.571V857.692Z" fill="#F7F7F7"/>
<path d="M822.857 857.692H788.571V892H822.857V857.692Z" fill="#EAEAEA"/>
<path d="M891.428 823.385H822.857V892H891.428V823.385Z" fill="white"/>
<path d="M857.143 823.385H822.857V857.692H857.143V823.385Z" fill="#FFF4EE"/>
<path d="M891.428 823.385H857.143V857.692H891.428V823.385Z" fill="#F4F4F4"/>
<path d="M857.143 857.692H822.857V892H857.143V857.692Z" fill="#F2F2F2"/>
<path d="M891.428 857.692H857.143V892H891.428V857.692Z" fill="#E6E6E6"/>
<path d="M960 823.385H891.429V892H960V823.385Z" fill="white"/>
<path d="M925.714 823.385H891.429V857.692H925.714V823.385Z" fill="#EEEEEE"/>
<path d="M960 823.385H925.714V857.692H960V823.385Z" fill="#FFE9DD"/>
<path d="M925.714 857.692H891.429V892H925.714V857.692Z" fill="#FFF1EA"/>
<path d="M960 857.692H925.714V892H960V857.692Z" fill="#F5F5F5"/>
<path d="M1028.57 823.385H960V892H1028.57V823.385Z" fill="white"/>
<path d="M994.286 823.385H960V857.692H994.286V823.385Z" fill="#E8E8E8"/>
<path d="M1028.57 823.385H994.286V857.692H1028.57V823.385Z" fill="#FFFEFD"/>
<path d="M994.286 857.692H960V892H994.286V857.692Z" fill="#E8E8E8"/>
<path d="M1028.57 857.692H994.286V892H1028.57V857.692Z" fill="#DDDDDD"/>
<path d="M1097.14 823.385H1028.57V892H1097.14V823.385Z" fill="white"/>
<path d="M1062.86 823.385H1028.57V857.692H1062.86V823.385Z" fill="#FFE4D4"/>
<path d="M1097.14 823.385H1062.86V857.692H1097.14V823.385Z" fill="white"/>
<path d="M1062.86 857.692H1028.57V892H1062.86V857.692Z" fill="#FFF8F4"/>
<path d="M1097.14 857.692H1062.86V892H1097.14V857.692Z" fill="#EDEDED"/>
<path d="M1165.71 823.385H1097.14V892H1165.71V823.385Z" fill="white"/>
<path d="M1131.43 823.385H1097.14V857.692H1131.43V823.385Z" fill="#EDEDED"/>
<path d="M1165.71 823.385H1131.43V857.692H1165.71V823.385Z" fill="#E8E8E8"/>
<path d="M1131.43 857.692H1097.14V892H1131.43V857.692Z" fill="#F3F3F3"/>
<path d="M1165.71 857.692H1131.43V892H1165.71V857.692Z" fill="#EAEAEA"/>
<path d="M1234.29 823.385H1165.71V892H1234.29V823.385Z" fill="white"/>
<path d="M1200 823.385H1165.71V857.692H1200V823.385Z" fill="#FFDBC7"/>
<path d="M1234.29 823.385H1200V857.692H1234.29V823.385Z" fill="#EBEBEB"/>
<path d="M1200 857.692H1165.71V892H1200V857.692Z" fill="#E7E7E7"/>
<path d="M1234.29 857.692H1200V892H1234.29V857.692Z" fill="#F4F4F4"/>
<path d="M1302.86 823.385H1234.29V892H1302.86V823.385Z" fill="white"/>
<path d="M1268.57 823.385H1234.29V857.692H1268.57V823.385Z" fill="#E8E8E8"/>
<path d="M1302.86 823.385H1268.57V857.692H1302.86V823.385Z" fill="#EDEDED"/>
<path d="M1268.57 857.692H1234.29V892H1268.57V857.692Z" fill="#F4F4F4"/>
<path d="M1302.86 857.692H1268.57V892H1302.86V857.692Z" fill="#E7E7E7"/>
<path d="M1371.43 823.385H1302.86V892H1371.43V823.385Z" fill="white"/>
<path d="M1337.14 823.385H1302.86V857.692H1337.14V823.385Z" fill="#FFDAC5"/>
<path d="M1371.43 823.385H1337.14V857.692H1371.43V823.385Z" fill="#FFF3EC"/>
<path d="M1337.14 857.692H1302.86V892H1337.14V857.692Z" fill="#FBFBFB"/>
<path d="M1371.43 857.692H1337.14V892H1371.43V857.692Z" fill="#FEFEFE"/>
<path d="M1440 823.385H1371.43V892H1440V823.385Z" fill="white"/>
<path d="M1405.71 823.385H1371.43V857.692H1405.71V823.385Z" fill="#EEEEEE"/>
<path d="M1440 823.385H1405.71V857.692H1440V823.385Z" fill="#E9E9E9"/>
<path d="M1405.71 857.692H1371.43V892H1405.71V857.692Z" fill="#FFD7C0"/>
<path d="M1440 857.692H1405.71V892H1440V857.692Z" fill="#FFF7F2"/>
</g>
</g>
<defs>
<clipPath id="clip0_215_170">
<rect width="1440" height="892" fill="white"/>
</clipPath>
<clipPath id="clip1_215_170">
<rect width="1440" height="892" fill="white"/>
</clipPath>
</defs>
</svg>
