<svg width="24" height="24" viewBox="0 0 24 24" fill="none" xmlns="http://www.w3.org/2000/svg">
<path d="M12 0.363647C5.376 0.363647 0 5.61747 0 12.0909C0 18.5644 5.376 23.8182 12 23.8182C18.624 23.8182 24 18.5644 24 12.0909C24 5.61747 18.624 0.363647 12 0.363647ZM12 3.88183C13.992 3.88183 15.6 5.45329 15.6 7.40001C15.6 9.34674 13.992 10.9182 12 10.9182C10.008 10.9182 8.4 9.34674 8.4 7.40001C8.4 5.45329 10.008 3.88183 12 3.88183ZM12 20.5346C9 20.5346 6.348 19.0335 4.8 16.7584C4.836 14.4247 9.6 13.1464 12 13.1464C14.388 13.1464 19.164 14.4247 19.2 16.7584C17.652 19.0335 15 20.5346 12 20.5346Z" fill="#30333E"/>
</svg>
