<svg width="84" height="32" viewBox="0 0 84 32" fill="none" xmlns="http://www.w3.org/2000/svg">
<path fill-rule="evenodd" clip-rule="evenodd" d="M15.2377 22.1078V26.5761C15.2525 26.8749 15.2066 27.1735 15.1028 27.4541C14.999 27.7347 14.8394 27.9913 14.6337 28.2085C14.428 28.4256 14.1804 28.5989 13.9059 28.7178C13.6314 28.8366 13.3356 28.8986 13.0365 28.9001H13.0335C12.2868 28.8509 11.5642 28.6162 10.9311 28.2172C10.7933 28.1334 10.5897 28.2172 10.5897 28.3191V31.3977C10.5985 31.4715 10.5919 31.5463 10.5703 31.6174C10.5487 31.6885 10.5125 31.7543 10.464 31.8106C10.4156 31.867 10.3559 31.9126 10.2889 31.9446C10.2218 31.9767 10.1489 31.9944 10.0746 31.9967H9.27797C9.2027 32.0054 9.12642 31.9967 9.05506 31.9712C8.9837 31.9458 8.91917 31.9042 8.86646 31.8497C8.81375 31.7953 8.77429 31.7294 8.75113 31.6573C8.72797 31.5851 8.72174 31.5086 8.73291 31.4337V20.6463C8.72174 20.5714 8.72797 20.4949 8.75113 20.4227C8.77429 20.3506 8.81375 20.2847 8.86646 20.2303C8.91917 20.1758 8.9837 20.1342 9.05506 20.1088C9.12642 20.0833 9.2027 20.0746 9.27797 20.0833H10.2363C10.2904 20.0894 10.3428 20.1063 10.3903 20.1329C10.4378 20.1595 10.4795 20.1954 10.513 20.2383C10.5464 20.2813 10.571 20.3305 10.5852 20.3831C10.5994 20.4356 10.603 20.4905 10.5957 20.5445C10.5957 20.7302 10.8173 20.7302 10.9371 20.6463C11.5255 20.1371 12.2632 19.8324 13.0395 19.7778C13.3389 19.7797 13.6348 19.8422 13.9093 19.9617C14.1839 20.0811 14.4313 20.255 14.6368 20.4728C14.8423 20.6905 15.0014 20.9477 15.1047 21.2287C15.208 21.5098 15.2532 21.8088 15.2377 22.1078V22.1078ZM58.423 22.2456V22.2306C58.4226 22.1701 58.4095 22.1103 58.3846 22.0551C58.3597 21.9999 58.3235 21.9506 58.2784 21.9102C58.2332 21.8699 58.1802 21.8395 58.1225 21.8209C58.0649 21.8023 58.0041 21.796 57.9439 21.8023H57.4647C57.3934 21.8191 57.3193 21.8195 57.2478 21.8037C57.1763 21.7878 57.1093 21.7561 57.0518 21.7108C56.9942 21.6655 56.9476 21.6079 56.9154 21.5421C56.8832 21.4763 56.8662 21.4042 56.8657 21.3309V20.6463C56.8568 20.5734 56.8649 20.4993 56.8894 20.4301C56.9139 20.3608 56.9542 20.2981 57.007 20.247C57.0598 20.1959 57.1238 20.1578 57.1939 20.1356C57.2639 20.1135 57.3382 20.1078 57.4108 20.1192H57.9379C57.9989 20.1324 58.0621 20.131 58.1225 20.1152C58.1828 20.0993 58.2386 20.0695 58.2853 20.0281C58.3319 19.9867 58.3682 19.9348 58.3911 19.8768C58.414 19.8187 58.4229 19.7561 58.417 19.694V18.496C58.417 17.8971 58.5548 17.8971 58.8962 17.8971H59.8366C60.2619 17.8971 60.2619 18.0828 60.2619 18.496V19.694L60.2613 19.7155C60.2615 19.7712 60.2737 19.8262 60.2969 19.8768C60.3201 19.9273 60.3538 19.9724 60.3958 20.0089C60.4378 20.0454 60.4872 20.0726 60.5405 20.0885C60.5938 20.1044 60.6499 20.1088 60.7051 20.1013H62.0707C62.1445 20.0881 62.2202 20.0924 62.292 20.1137C62.3638 20.1349 62.4296 20.1727 62.4842 20.2238C62.5389 20.275 62.5809 20.3382 62.6068 20.4084C62.6328 20.4786 62.642 20.5539 62.6338 20.6284V21.3369C62.6333 21.4101 62.6163 21.4823 62.5841 21.5481C62.5519 21.6138 62.5053 21.6715 62.4477 21.7168C62.3902 21.7621 62.3232 21.7938 62.2517 21.8097C62.1802 21.8255 62.1061 21.825 62.0348 21.8083H60.6901C60.6319 21.8086 60.5744 21.8212 60.5214 21.8452C60.4683 21.8691 60.4209 21.904 60.3822 21.9475C60.3435 21.991 60.3144 22.0421 60.2968 22.0976C60.2791 22.1531 60.2734 22.2117 60.2798 22.2695V25.5818C60.2798 26.8815 60.6572 27.5284 62.1246 26.9834C62.1599 26.9563 62.2009 26.9377 62.2445 26.9291C62.288 26.9204 62.333 26.922 62.3759 26.9336C62.4188 26.9452 62.4584 26.9665 62.4917 26.9959C62.525 27.0253 62.5511 27.062 62.5679 27.1032L62.9931 27.9237C63.0244 28.01 63.0228 28.1047 62.9885 28.1898C62.9542 28.275 62.8898 28.3444 62.8075 28.3849C62.1585 28.7253 61.4378 28.906 60.7051 28.912C59.016 28.912 58.417 27.3068 58.417 25.9172V22.2456H58.423V22.2456ZM17.939 22.0958V26.3604C17.939 27.8459 18.8434 28.906 20.1432 28.906C20.9087 28.8662 21.6404 28.5782 22.2276 28.0855C22.2514 28.0553 22.2836 28.033 22.3202 28.0214C22.3568 28.0099 22.3961 28.0095 22.4329 28.0205C22.4696 28.0315 22.5023 28.0532 22.5266 28.083C22.5508 28.1127 22.5656 28.1491 22.569 28.1873C22.5932 28.3135 22.6611 28.4271 22.7608 28.5082C22.8605 28.5892 22.9856 28.6325 23.1141 28.6305H23.8987C23.9716 28.6395 24.0457 28.6314 24.115 28.6069C24.1842 28.5824 24.2469 28.5421 24.298 28.4893C24.3491 28.4364 24.3872 28.3725 24.4094 28.3024C24.4316 28.2323 24.4372 28.1581 24.4258 28.0855V20.6463C24.4402 20.5724 24.4369 20.4961 24.4162 20.4238C24.3954 20.3514 24.3577 20.285 24.3062 20.23C24.2548 20.175 24.191 20.1331 24.1201 20.1076C24.0493 20.0821 23.9734 20.0737 23.8987 20.0833H22.9284C22.8753 20.0879 22.8237 20.1031 22.7767 20.1281C22.7296 20.1531 22.6881 20.1872 22.6546 20.2286C22.621 20.27 22.5962 20.3177 22.5815 20.3689C22.5668 20.42 22.5625 20.4737 22.569 20.5265C22.5656 20.5648 22.5508 20.6011 22.5266 20.6308C22.5023 20.6606 22.4696 20.6824 22.4329 20.6933C22.3961 20.7043 22.3568 20.704 22.3202 20.6924C22.2836 20.6808 22.2514 20.6585 22.2276 20.6284C21.6385 20.1414 20.9067 19.8597 20.1432 19.8257H20.136C19.8417 19.8272 19.5507 19.8875 19.28 20.003C19.0093 20.1185 18.7645 20.287 18.5598 20.4985C18.3551 20.7099 18.1948 20.9602 18.0882 21.2345C17.9816 21.5088 17.9309 21.8016 17.939 22.0958V22.0958ZM49.4805 22.0898V26.594C49.4936 26.8911 49.4467 27.1878 49.3424 27.4662C49.2381 27.7447 49.0786 27.9992 48.8736 28.2146C48.6685 28.4299 48.4221 28.6016 48.1491 28.7194C47.876 28.8372 47.582 28.8987 47.2847 28.9001H47.2763C46.5342 28.8563 45.8161 28.621 45.1919 28.2172C45.1619 28.1956 45.1272 28.1815 45.0906 28.1759C45.054 28.1703 45.0167 28.1735 44.9816 28.1852C44.9465 28.1969 44.9147 28.2168 44.8888 28.2432C44.8629 28.2696 44.8436 28.3017 44.8325 28.337C44.8119 28.4303 44.7563 28.512 44.6772 28.5655C44.5981 28.619 44.5015 28.6401 44.4073 28.6245H43.5208C43.4455 28.637 43.3684 28.6307 43.2961 28.6062C43.2239 28.5816 43.1588 28.5397 43.1067 28.484C43.0545 28.4283 43.0169 28.3606 42.9972 28.2869C42.9775 28.2132 42.9763 28.1358 42.9937 28.0615V17.1843C42.9793 17.1104 42.9826 17.0341 43.0033 16.9617C43.0241 16.8894 43.0618 16.823 43.1133 16.768C43.1647 16.713 43.2285 16.6711 43.2994 16.6455C43.3702 16.62 43.4461 16.6117 43.5208 16.6213H44.4911C44.5442 16.6259 44.5958 16.6411 44.6428 16.6661C44.6898 16.691 44.7314 16.7252 44.7649 16.7666C44.7985 16.808 44.8233 16.8557 44.838 16.9068C44.8527 16.958 44.857 17.0117 44.8505 17.0645V20.4846C44.8539 20.5228 44.8687 20.5592 44.8929 20.5889C44.9172 20.6187 44.9499 20.6404 44.9866 20.6514C45.0234 20.6624 45.0627 20.662 45.0993 20.6505C45.1359 20.6389 45.1681 20.6166 45.1919 20.5864C45.781 20.0995 46.5128 19.8178 47.2763 19.7838H47.2847C47.582 19.7852 47.876 19.8467 48.1491 19.9644C48.4221 20.0822 48.6685 20.2539 48.8736 20.4693C49.0786 20.6846 49.2381 20.9392 49.3424 21.2176C49.4467 21.4961 49.4936 21.7928 49.4805 22.0898V22.0898ZM4.25265 26.3245C4.26081 26.1081 4.1987 25.8949 4.07562 25.7168C3.95254 25.5386 3.7751 25.4051 3.56983 25.3362L1.72502 24.6893C1.23119 24.5206 0.801021 24.2044 0.492551 23.7835C0.184081 23.3626 0.0121642 22.8571 0 22.3354C0 20.9218 0.958344 19.7958 2.99482 19.7958C5.03131 19.7958 5.98965 20.9218 5.98965 22.3354C6.00074 22.4024 5.99716 22.471 5.97916 22.5365C5.96115 22.602 5.92915 22.6629 5.88536 22.7148C5.84157 22.7667 5.78704 22.8085 5.72552 22.8373C5.66401 22.8662 5.59697 22.8813 5.52905 22.8817C5.51707 22.8817 5.50449 22.8817 5.49251 22.8805H4.62401C4.36645 22.8805 4.22869 22.6948 4.22869 22.3354C4.24076 22.1709 4.21888 22.0056 4.16441 21.8499C4.10994 21.6941 4.02404 21.5512 3.91205 21.4301C3.80005 21.3089 3.66435 21.2121 3.51337 21.1456C3.36238 21.0791 3.19934 21.0443 3.03436 21.0434C2.37729 21.0434 1.83643 21.5837 1.83643 22.2414C1.83643 22.7032 2.10416 23.126 2.52164 23.3237L4.38442 23.9885C4.88701 24.136 5.32526 24.4484 5.62845 24.8755C5.93165 25.3026 6.0821 25.8194 6.05554 26.3425C6.05554 27.756 4.6899 28.9001 3.06071 28.9001C1.43153 28.9001 0.0658861 27.8279 0.0658861 26.1149C0.0584037 26.0723 0.0609735 26.0286 0.0733906 25.9872C0.0858077 25.9458 0.107728 25.9079 0.137403 25.8764C0.167078 25.845 0.203686 25.821 0.244306 25.8062C0.284927 25.7915 0.328434 25.7864 0.371358 25.7914H1.47944C1.52595 25.7834 1.57364 25.7856 1.6192 25.7979C1.66475 25.8103 1.70708 25.8323 1.74323 25.8627C1.77938 25.893 1.80848 25.9309 1.8285 25.9736C1.84853 26.0163 1.859 26.0629 1.85919 26.1101L1.8526 26.2508C1.85338 26.4077 1.88659 26.5627 1.95017 26.7061C2.01374 26.8495 2.10629 26.9783 2.222 27.0842C2.33771 27.1901 2.47408 27.271 2.62254 27.3216C2.771 27.3723 2.92834 27.3917 3.08467 27.3787C3.37654 27.3831 3.65927 27.2769 3.87596 27.0813C4.09266 26.8857 4.22725 26.6153 4.25265 26.3245V26.3245ZM39.5077 28.8162C39.4683 28.8448 39.4233 28.865 39.3756 28.8754C39.328 28.8858 39.2787 28.8863 39.2309 28.8767C39.1831 28.8671 39.1377 28.8478 39.0978 28.8198C39.0578 28.7919 39.024 28.756 38.9986 28.7144L36.7764 25.8992C36.7363 25.8418 36.6789 25.7986 36.6125 25.776C36.5462 25.7534 36.4743 25.7525 36.4074 25.7736C36.3405 25.7946 36.2821 25.8364 36.2407 25.893C36.1992 25.9495 36.1769 26.0178 36.1769 26.0879L36.1775 28.1693C36.1861 28.2319 36.1802 28.2957 36.16 28.3556C36.1399 28.4154 36.1062 28.4699 36.0615 28.5145C36.0168 28.5592 35.9624 28.5929 35.9025 28.6131C35.8426 28.6332 35.7789 28.6392 35.7163 28.6305H34.7214C34.6586 28.6302 34.5966 28.6156 34.5402 28.5879C34.4838 28.5601 34.4345 28.5199 34.3959 28.4703C34.3573 28.4207 34.3305 28.363 34.3175 28.3015C34.3045 28.24 34.3055 28.1764 34.3207 28.1154V17.2023C34.3207 16.807 34.4225 16.6033 34.746 16.6033H35.7163C35.7824 16.593 35.8501 16.5991 35.9133 16.6211C35.9766 16.6431 36.0335 16.6802 36.079 16.7293C36.1245 16.7784 36.1573 16.8379 36.1745 16.9026C36.1917 16.9673 36.1927 17.0353 36.1775 17.1004V22.4911L36.1769 22.5097C36.1768 22.5832 36.2001 22.6549 36.2434 22.7144C36.2866 22.7739 36.3476 22.8181 36.4176 22.8406C36.4876 22.8632 36.563 22.863 36.6329 22.84C36.7027 22.817 36.7635 22.7725 36.8064 22.7127L38.9567 19.9815C38.9751 19.9349 39.0045 19.8934 39.0424 19.8605C39.0802 19.8276 39.1254 19.8043 39.1742 19.7926C39.2229 19.7808 39.2738 19.781 39.3224 19.793C39.3711 19.805 39.4162 19.8286 39.4538 19.8617L40.1905 20.4606C40.4601 20.6643 40.5679 20.856 40.3583 21.1075L38.2799 23.6411C38.1987 23.7116 38.133 23.7982 38.0869 23.8952C38.0408 23.9923 38.0153 24.0979 38.0119 24.2053C38.0085 24.3127 38.0274 24.4197 38.0673 24.5195C38.1073 24.6193 38.1674 24.7097 38.2439 24.7852L40.4122 27.6183C40.4541 27.6677 40.4838 27.7264 40.4988 27.7894C40.5138 27.8525 40.5137 27.9182 40.4985 27.9812C40.4833 28.0443 40.4535 28.1028 40.4114 28.1522C40.3694 28.2015 40.3163 28.2402 40.2564 28.2652L39.5077 28.8162V28.8162ZM29.487 28.1993C29.4999 28.2594 29.4972 28.3219 29.4791 28.3807C29.4611 28.4395 29.4283 28.4928 29.3839 28.5354C29.3395 28.578 29.285 28.6085 29.2254 28.6241C29.1659 28.6397 29.1034 28.6399 29.0438 28.6245H28.0555C27.6602 28.6245 27.6303 28.5227 27.6303 28.1993V20.6463C27.6171 20.5726 27.6214 20.4969 27.6427 20.4251C27.6639 20.3533 27.7017 20.2875 27.7528 20.2328C27.804 20.1782 27.8672 20.1362 27.9374 20.1102C28.0076 20.0843 28.0829 20.0751 28.1573 20.0833H28.942C29.0252 20.0899 29.1062 20.1138 29.1797 20.1535C29.2532 20.1931 29.3177 20.2476 29.369 20.3136C29.4202 20.3795 29.4572 20.4554 29.4776 20.5364C29.4979 20.6174 29.5011 20.7018 29.487 20.7841C29.487 20.9698 29.6727 21.0057 29.7925 20.8859C30.0573 20.5697 30.3821 20.3091 30.748 20.1189C31.114 19.9287 31.5139 19.8128 31.9248 19.7778H31.9314C32.1159 19.7778 32.2668 19.9294 32.2668 20.1132L32.2662 20.1372L32.2668 21.2627C32.2664 21.3224 32.2531 21.3814 32.2279 21.4356C32.2026 21.4897 32.166 21.5378 32.1204 21.5765C32.0749 21.6153 32.0215 21.6437 31.964 21.6599C31.9065 21.6761 31.8461 21.6798 31.7871 21.6706H31.2779C30.8099 21.6966 30.3678 21.8943 30.0363 22.2258C29.7048 22.5573 29.5071 22.9994 29.4811 23.4674V28.2592L29.487 28.1993ZM52.5532 20.6403C52.5392 20.5673 52.543 20.492 52.5643 20.4208C52.5855 20.3495 52.6236 20.2845 52.6753 20.231C52.727 20.1776 52.7907 20.1373 52.8612 20.1137C52.9317 20.0901 53.0068 20.0838 53.0803 20.0953H53.9386C54.0118 20.0958 54.084 20.1127 54.1497 20.1449C54.2155 20.1772 54.2732 20.2238 54.3185 20.2813C54.3637 20.3388 54.3955 20.4058 54.4113 20.4773C54.4272 20.5488 54.4267 20.623 54.41 20.6942V27.9597C54.41 28.3849 54.3082 28.6245 53.9128 28.6245H53.0803C53.0015 28.6377 52.9207 28.6306 52.8454 28.6039C52.7701 28.5771 52.7029 28.5316 52.6502 28.4716C52.5974 28.4117 52.5608 28.3392 52.5438 28.2612C52.5269 28.1831 52.5301 28.102 52.5532 28.0256V20.6403V20.6403ZM76.931 26.606C76.931 26.4901 76.885 26.3788 76.803 26.2968C76.721 26.2148 76.6098 26.1688 76.4938 26.1688H75.6972C75.5812 26.1688 75.47 26.2148 75.388 26.2968C75.306 26.3788 75.2599 26.4901 75.2599 26.606V28.1933C75.2599 28.4347 75.4558 28.6305 75.6972 28.6305H76.4938C76.6098 28.6305 76.721 28.5845 76.803 28.5025C76.885 28.4205 76.931 28.3092 76.931 28.1933V26.606ZM13.3749 22.9284C13.3995 22.7517 13.3863 22.5719 13.3362 22.4007C13.286 22.2295 13.2 22.071 13.0839 21.9356C12.9677 21.8003 12.8242 21.6911 12.6626 21.6155C12.5011 21.5398 12.3254 21.4994 12.147 21.4969C11.7847 21.5145 11.4379 21.6489 11.1583 21.8799C10.8787 22.1109 10.6813 22.4262 10.5957 22.7786V25.9891C10.5957 26.8756 11.5361 27.187 12.1829 27.187H12.2003C12.3745 27.186 12.5465 27.1472 12.7043 27.0732C12.862 26.9993 13.0018 26.892 13.1141 26.7587C13.2263 26.6255 13.3083 26.4694 13.3544 26.3014C13.4004 26.1333 13.4095 25.9573 13.3809 25.7854V22.9284H13.3749V22.9284ZM19.7838 25.9172V22.8445C19.7636 22.6761 19.7791 22.5053 19.8295 22.3433C19.8799 22.1813 19.9639 22.0318 20.0761 21.9045C20.1883 21.7773 20.3261 21.6752 20.4806 21.6049C20.635 21.5347 20.8025 21.4978 20.9722 21.4969H20.9817C21.7185 21.4969 22.569 22.1437 22.569 22.6948V25.9891C22.4741 26.3327 22.2693 26.6358 21.9859 26.8521C21.7026 27.0684 21.3562 27.186 20.9997 27.187L20.2929 27.0013C20.1281 26.874 19.996 26.7093 19.9075 26.5207C19.819 26.3322 19.7766 26.1254 19.7838 25.9172V25.9172ZM46.4138 21.4909C45.6771 21.4909 44.8265 22.1377 44.8265 22.6888V25.9472C44.8265 26.7498 45.5273 27.175 46.4138 27.175C46.5828 27.1708 46.7492 27.1319 46.9026 27.0608C47.0559 26.9896 47.193 26.8877 47.3054 26.7613C47.4177 26.6349 47.5028 26.4868 47.5555 26.3262C47.6082 26.1655 47.6274 25.9957 47.6117 25.8274V22.8385C47.632 22.6701 47.6164 22.4993 47.566 22.3373C47.5157 22.1753 47.4316 22.0258 47.3194 21.8985C47.2072 21.7713 47.0694 21.6692 46.915 21.5989C46.7606 21.5287 46.593 21.4918 46.4234 21.4909H46.4138V21.4909ZM83.6874 20.2989C83.6874 20.183 83.6413 20.0717 83.5593 19.9897C83.4773 19.9077 83.3661 19.8617 83.2501 19.8617H82.2559C82.1399 19.8617 82.0287 19.9077 81.9467 19.9897C81.8647 20.0717 81.8186 20.183 81.8186 20.2989V22.2815C81.8186 22.5229 82.0145 22.7187 82.2559 22.7187H83.2501C83.3661 22.7187 83.4773 22.6727 83.5593 22.5907C83.6413 22.5087 83.6874 22.3975 83.6874 22.2815V20.2989ZM52.2956 17.4838C52.2956 16.8267 52.8365 16.2859 53.4936 16.2859C54.1506 16.2859 54.6915 16.8267 54.6915 17.4838C54.6915 18.1409 54.1506 18.6817 53.4936 18.6817L53.451 18.6823C53.1449 18.6809 52.8517 18.5587 52.6352 18.3422C52.4187 18.1257 52.2965 17.8325 52.295 17.5263L52.2956 17.4838ZM77.2245 13.8002C77.2245 13.6842 77.1785 13.573 77.0965 13.491C77.0145 13.409 76.9033 13.3629 76.7873 13.3629H75.3977C75.2817 13.3629 75.1705 13.409 75.0885 13.491C75.0065 13.573 74.9605 13.6842 74.9605 13.8002V16.5734C74.9605 16.8147 75.1563 17.0106 75.3977 17.0106H76.7873C76.9033 17.0106 77.0145 16.9645 77.0965 16.8825C77.1785 16.8005 77.2245 16.6893 77.2245 16.5734V13.8002ZM70.7617 7.29539C70.7617 7.17943 70.7157 7.06821 70.6337 6.98621C70.5517 6.90422 70.4404 6.85815 70.3245 6.85815H68.5396C68.4236 6.85815 68.3124 6.90422 68.2304 6.98621C68.1484 7.06821 68.1023 7.17943 68.1023 7.29539V10.8592C68.1023 11.1006 68.2982 11.2965 68.5396 11.2965H70.3245C70.4404 11.2965 70.5517 11.2504 70.6337 11.1684C70.7157 11.0864 70.7617 10.9752 70.7617 10.8592V7.29539ZM77.524 0.437244C77.524 0.32128 77.478 0.210065 77.396 0.128066C77.314 0.0460667 77.2028 0 77.0868 0L75.1042 0C74.9883 0 74.877 0.0460667 74.795 0.128066C74.713 0.210065 74.667 0.32128 74.667 0.437244V4.3964C74.667 4.63779 74.8628 4.83365 75.1042 4.83365H77.0868C77.2028 4.83365 77.314 4.78758 77.396 4.70558C77.478 4.62358 77.524 4.51237 77.524 4.3964V0.437244Z" fill="white"/>
</svg>
